<mxfile host="65bd71144e">
    <diagram id="GsIjGPgQR3tFYCc7OeM9" name="Page-1">
        <mxGraphModel dx="659" dy="1042" grid="1" gridSize="10" guides="1" tooltips="1" connect="1" arrows="1" fold="1" page="1" pageScale="1" pageWidth="850" pageHeight="1100" math="0" shadow="0">
            <root>
                <mxCell id="0"/>
                <mxCell id="1" parent="0"/>
                <mxCell id="PYV_u5e0N2gbVcALVR86-26" value="" style="group" parent="1" vertex="1" connectable="0">
                    <mxGeometry x="110" y="260" width="506" height="220" as="geometry"/>
                </mxCell>
                <mxCell id="PYV_u5e0N2gbVcALVR86-19" value="" style="group" parent="PYV_u5e0N2gbVcALVR86-26" vertex="1" connectable="0">
                    <mxGeometry width="498" height="220" as="geometry"/>
                </mxCell>
                <mxCell id="PYV_u5e0N2gbVcALVR86-5" value="" style="shape=flexArrow;endArrow=classic;startArrow=classic;html=1;rounded=0;fillColor=none;strokeColor=#000000;strokeWidth=4;" parent="PYV_u5e0N2gbVcALVR86-19" edge="1">
                    <mxGeometry width="100" height="100" relative="1" as="geometry">
                        <mxPoint x="160" y="120" as="sourcePoint"/>
                        <mxPoint x="345" y="120" as="targetPoint"/>
                    </mxGeometry>
                </mxCell>
                <mxCell id="PYV_u5e0N2gbVcALVR86-11" style="edgeStyle=orthogonalEdgeStyle;rounded=0;orthogonalLoop=1;jettySize=auto;html=1;exitX=0.5;exitY=1;exitDx=0;exitDy=0;fontColor=default;strokeColor=#000000;strokeWidth=3;" parent="PYV_u5e0N2gbVcALVR86-19" edge="1">
                    <mxGeometry relative="1" as="geometry">
                        <mxPoint x="283" y="100" as="sourcePoint"/>
                        <mxPoint x="283" y="100" as="targetPoint"/>
                    </mxGeometry>
                </mxCell>
                <mxCell id="PYV_u5e0N2gbVcALVR86-17" value="&lt;b&gt;Product/Service&lt;/b&gt;" style="shape=image;html=1;verticalAlign=top;verticalLabelPosition=bottom;labelBackgroundColor=none;imageAspect=0;aspect=fixed;image=https://cdn4.iconfinder.com/data/icons/food-and-equipment-outline/32/dish-128.png;fontColor=default;strokeWidth=0;spacingTop=-14;" parent="PYV_u5e0N2gbVcALVR86-19" vertex="1">
                    <mxGeometry x="268" width="88" height="88" as="geometry"/>
                </mxCell>
                <mxCell id="PYV_u5e0N2gbVcALVR86-18" value="&lt;b&gt;Money&lt;/b&gt;" style="shape=image;html=1;verticalAlign=top;verticalLabelPosition=bottom;labelBackgroundColor=none;imageAspect=0;aspect=fixed;image=https://cdn4.iconfinder.com/data/icons/48-bubbles/48/07.Wallet-128.png;fontColor=default;strokeWidth=5;spacingTop=-3;imageBorder=none;" parent="PYV_u5e0N2gbVcALVR86-19" vertex="1">
                    <mxGeometry x="140" y="150" width="70" height="70" as="geometry"/>
                </mxCell>
                <mxCell id="PYV_u5e0N2gbVcALVR86-1" value="&lt;b&gt;Party B: Restaurant&lt;/b&gt;" style="shape=image;html=1;verticalAlign=top;verticalLabelPosition=bottom;labelBackgroundColor=none;imageAspect=0;aspect=fixed;image=https://cdn1.iconfinder.com/data/icons/ionicons-outline-vol-2/512/restaurant-outline-128.png" parent="PYV_u5e0N2gbVcALVR86-26" vertex="1">
                    <mxGeometry x="378" y="50" width="128" height="128" as="geometry"/>
                </mxCell>
                <mxCell id="PYV_u5e0N2gbVcALVR86-3" value="&lt;b&gt;Party A: You&lt;/b&gt;" style="shape=image;html=1;verticalAlign=top;verticalLabelPosition=bottom;labelBackgroundColor=none;imageAspect=0;aspect=fixed;image=https://cdn0.iconfinder.com/data/icons/phosphor-regular-vol-3/256/mask-happy-128.png;imageBackground=none;fontColor=default;" parent="1" vertex="1">
                    <mxGeometry x="108" y="296" width="148" height="148" as="geometry"/>
                </mxCell>
            </root>
        </mxGraphModel>
    </diagram>
</mxfile>